<svg xmlns="http://www.w3.org/2000/svg" width="1200" height="800" viewBox="0 0 1200 800">
  <defs>
    <linearGradient id="bg" x1="0" y1="0" x2="1" y2="1">
      <stop offset="0" stop-color="#22c55e"/>
      <stop offset="1" stop-color="#ffffff"/>
    </linearGradient>
  </defs>
  <rect width="1200" height="800" fill="url(#bg)"/>
  <g opacity="0.92">
    <rect x="330" y="280" width="170" height="170" rx="26" fill="#0f172a"/>
    <rect x="520" y="280" width="170" height="170" rx="26" fill="#0f172a" opacity="0.85"/>
    <rect x="710" y="280" width="170" height="170" rx="26" fill="#0f172a" opacity="0.7"/>
    <circle cx="415" cy="365" r="44" fill="#60a5fa"/>
    <circle cx="605" cy="365" r="44" fill="#60a5fa"/>
    <circle cx="795" cy="365" r="44" fill="#f59e0b"/>
    <rect x="330" y="470" width="170" height="170" rx="26" fill="#0f172a" opacity="0.7"/>
    <rect x="520" y="470" width="170" height="170" rx="26" fill="#0f172a" opacity="0.85"/>
    <rect x="710" y="470" width="170" height="170" rx="26" fill="#0f172a"/>
    <circle cx="415" cy="555" r="44" fill="#f59e0b"/>
    <circle cx="605" cy="555" r="44" fill="#60a5fa"/>
    <circle cx="795" cy="555" r="44" fill="#f59e0b"/>
  </g>
  <g fill="#14532d" opacity="0.95">
    <text x="70" y="140" font-family="system-ui, -apple-system, Segoe UI, Roboto, Arial" font-size="64" font-weight="800">
      Matching games
    </text>
    <text x="70" y="210" font-family="system-ui, -apple-system, Segoe UI, Roboto, Arial" font-size="30" font-weight="600" opacity="0.75">
      Shapes, colors, and pictures
    </text>
  </g>
</svg>
